<?xml version="1.0" encoding="utf-8"?>
<!-- Generator: Adobe Illustrator 24.3.0, SVG Export Plug-In . SVG Version: 6.00 Build 0)  -->
<svg version="1.1" xmlns="http://www.w3.org/2000/svg" xmlns:xlink="http://www.w3.org/1999/xlink" x="0px" y="0px"
	 viewBox="0 0 48 48" style="enable-background:new 0 0 48 48;" xml:space="preserve">
<style type="text/css">
	.st0{filter:url(#Adobe_OpacityMaskFilter);}
	.st1{fill-rule:evenodd;clip-rule:evenodd;fill:#FFFFFF;}
	.st2{mask:url(#b_1_);fill:#0F9D58;}
	.st3{filter:url(#Adobe_OpacityMaskFilter_1_);}
	.st4{display:none;mask:url(#b_3_);fill:#F7F7F7;}
	.st5{filter:url(#Adobe_OpacityMaskFilter_2_);}
	.st6{mask:url(#b_5_);fill:#F4B400;}
	.st7{filter:url(#Adobe_OpacityMaskFilter_3_);}
	.st8{opacity:0.2;mask:url(#b_7_);fill:#BF360C;enable-background:new    ;}
	.st9{filter:url(#Adobe_OpacityMaskFilter_4_);}
	.st10{opacity:0.2;mask:url(#b_9_);fill:#263238;enable-background:new    ;}
	.st11{filter:url(#Adobe_OpacityMaskFilter_5_);}
	.st12{opacity:0.2;mask:url(#e_1_);fill:#FFFFFF;enable-background:new    ;}
	.st13{filter:url(#Adobe_OpacityMaskFilter_6_);}
	.st14{mask:url(#e_2_);fill:url(#SVGID_1_);}
	.st15{fill:#FFFFFF;stroke:#FFFFFF;stroke-miterlimit:10;}
</style>
<g id="Livello_3">
	<defs>
		<filter id="Adobe_OpacityMaskFilter" filterUnits="userSpaceOnUse" x="6" y="9" width="36" height="30">
			<feColorMatrix  type="matrix" values="1 0 0 0 0  0 1 0 0 0  0 0 1 0 0  0 0 0 1 0"/>
		</filter>
	</defs>
	<mask maskUnits="userSpaceOnUse" x="6" y="9" width="36" height="30" id="b_1_">
		<g class="st0">
			<path id="a_1_" class="st1" d="M43,5H5C3.3,5,2,6.3,2,8v32c0,1.7,1.3,3,3,3h38c1.7,0,3-1.3,3-3V8C46,6.3,44.7,5,43,5z"/>
		</g>
	</mask>
	<path class="st2" d="M6,9h36v30H6V9z"/>
	<defs>
		<filter id="Adobe_OpacityMaskFilter_1_" filterUnits="userSpaceOnUse" x="17" y="17" width="14" height="14">
			<feColorMatrix  type="matrix" values="1 0 0 0 0  0 1 0 0 0  0 0 1 0 0  0 0 0 1 0"/>
		</filter>
	</defs>
	<mask maskUnits="userSpaceOnUse" x="17" y="17" width="14" height="14" id="b_3_">
		<g class="st3">
			<path id="a_3_" class="st1" d="M43,5H5C3.3,5,2,6.3,2,8v32c0,1.7,1.3,3,3,3h38c1.7,0,3-1.3,3-3V8C46,6.3,44.7,5,43,5z"/>
		</g>
	</mask>
	<path class="st4" d="M24,23c1.7,0,3-1.3,3-3c0-1.7-1.3-3-3-3c-1.7,0-3,1.3-3,3C21,21.7,22.3,23,24,23z M24,25c-3.4,0-7,1.8-7,4v2
		h14v-2C31,26.8,27.4,25,24,25z"/>
	<defs>
		<filter id="Adobe_OpacityMaskFilter_2_" filterUnits="userSpaceOnUse" x="2" y="5" width="44" height="38">
			<feColorMatrix  type="matrix" values="1 0 0 0 0  0 1 0 0 0  0 0 1 0 0  0 0 0 1 0"/>
		</filter>
	</defs>
	<mask maskUnits="userSpaceOnUse" x="2" y="5" width="44" height="38" id="b_5_">
		<g class="st5">
			<path id="a_5_" class="st1" d="M43,5H5C3.3,5,2,6.3,2,8v32c0,1.7,1.3,3,3,3h38c1.7,0,3-1.3,3-3V8C46,6.3,44.7,5,43,5z"/>
		</g>
	</mask>
	<path class="st6" d="M43,5H5C3.3,5,2,6.3,2,8v32c0,1.7,1.3,3,3,3h38c1.7,0,3-1.3,3-3V8C46,6.3,44.7,5,43,5z M42,39H6V9h36V39z"/>
	<defs>
		<filter id="Adobe_OpacityMaskFilter_3_" filterUnits="userSpaceOnUse" x="2" y="39.7" width="44" height="3.2">
			<feColorMatrix  type="matrix" values="1 0 0 0 0  0 1 0 0 0  0 0 1 0 0  0 0 0 1 0"/>
		</filter>
	</defs>
	<mask maskUnits="userSpaceOnUse" x="2" y="39.7" width="44" height="3.2" id="b_7_">
		<g class="st7">
			<path id="a_7_" class="st1" d="M43,5H5C3.3,5,2,6.3,2,8v32c0,1.7,1.3,3,3,3h38c1.7,0,3-1.3,3-3V8C46,6.3,44.7,5,43,5z"/>
		</g>
	</mask>
	<path class="st8" d="M43,42.7H5c-1.7,0-3-1.3-3-3V40c0,1.7,1.3,3,3,3h38c1.7,0,3-1.3,3-3v-0.2C46,41.4,44.7,42.7,43,42.7z"/>
	<defs>
		<filter id="Adobe_OpacityMaskFilter_4_" filterUnits="userSpaceOnUse" x="6" y="8.7" width="36" height="0.2">
			<feColorMatrix  type="matrix" values="1 0 0 0 0  0 1 0 0 0  0 0 1 0 0  0 0 0 1 0"/>
		</filter>
	</defs>
	<mask maskUnits="userSpaceOnUse" x="6" y="8.7" width="36" height="0.2" id="b_9_">
		<g class="st9">
			<path id="a_9_" class="st1" d="M43,5H5C3.3,5,2,6.3,2,8v32c0,1.7,1.3,3,3,3h38c1.7,0,3-1.3,3-3V8C46,6.3,44.7,5,43,5z"/>
		</g>
	</mask>
	<path class="st10" d="M6,8.7h36V9H6V8.7z"/>
	<defs>
		<filter id="Adobe_OpacityMaskFilter_5_" filterUnits="userSpaceOnUse" x="6" y="39" width="36" height="0.2">
			<feColorMatrix  type="matrix" values="1 0 0 0 0  0 1 0 0 0  0 0 1 0 0  0 0 0 1 0"/>
		</filter>
	</defs>
	<mask maskUnits="userSpaceOnUse" x="6" y="39" width="36" height="0.2" id="e_1_">
		<g class="st11">
			<path id="d_1_" class="st1" d="M43,5H5C3.3,5,2,6.3,2,8v32c0,1.7,1.3,3,3,3h38c1.7,0,3-1.3,3-3V8C46,6.3,44.7,5,43,5z"/>
		</g>
	</mask>
	<path class="st12" d="M6,39h36v0.2H6V39z"/>
	<defs>
		<filter id="Adobe_OpacityMaskFilter_6_" filterUnits="userSpaceOnUse" x="2" y="5" width="44" height="38">
			<feColorMatrix  type="matrix" values="1 0 0 0 0  0 1 0 0 0  0 0 1 0 0  0 0 0 1 0"/>
		</filter>
	</defs>
	<mask maskUnits="userSpaceOnUse" x="2" y="5" width="44" height="38" id="e_2_">
		<g class="st13">
			<path id="d_2_" class="st1" d="M43,5H5C3.3,5,2,6.3,2,8v32c0,1.7,1.3,3,3,3h38c1.7,0,3-1.3,3-3V8C46,6.3,44.7,5,43,5z"/>
		</g>
	</mask>
	
		<radialGradient id="SVGID_1_" cx="-265.7817" cy="434.4189" r="1.3829" gradientTransform="matrix(38.0002 0 0 -38 10103.2637 16513.8105)" gradientUnits="userSpaceOnUse">
		<stop  offset="0" style="stop-color:#FFFFFF;stop-opacity:0.1"/>
		<stop  offset="1" style="stop-color:#FFFFFF;stop-opacity:0"/>
	</radialGradient>
	<path class="st14" d="M43,5H5C3.3,5,2,6.3,2,8v32c0,1.7,1.3,3,3,3h38c1.7,0,3-1.3,3-3V8C46,6.3,44.7,5,43,5z"/>
</g>
<g id="Livello_2">
	<path class="st15" d="M30,27v3H18v-3h-2v3c0,1.1,0.9,2,2,2h12c1.1,0,2-0.9,2-2v-3H30z M29,23l-1.4-1.4L25,24.2V16h-2v8.2l-2.6-2.6
		L19,23l5,5L29,23z"/>
</g>
</svg>
